<svg xmlns="http://www.w3.org/2000/svg" viewBox="0 0 32 32" width="32" height="32">
  <!-- AWS橙色背景 -->
  <rect width="32" height="32" fill="#FF9900" rx="4"/>

  <!-- AWS云服务图标简化版 -->
  <g fill="white">
    <!-- 云朵形状 -->
    <path d="M8 18c-1.1 0-2-.9-2-2s.9-2 2-2c.2-2.2 2-4 4.2-4 1.5 0 2.8.8 3.5 2 .7-.6 1.6-1 2.5-1 2.2 0 4 1.8 4 4 0 .3 0 .6-.1.9.6.5 1 1.3 1 2.1 0 1.1-.9 2-2 2H8z"/>

    <!-- AWS字母A简化 -->
    <path d="M14 24l-1.5-3h3l-1.5 3z"/>
    <path d="M12.5 21h3l.5 1h-4l.5-1z"/>
  </g>
</svg>